# xmcd
#
# Track frame offsets: 
#        150
#        10346
#        23011
#        31972
#        43426
#        52067
#        63358
#        73331
#        82413
#        91285
#        100240
#        110050
#        120441
#        132242
#        141405
#        150448
#        161119
#        171689
#
# Disc length: 2437 seconds
#
# Revision: 0
# Processed by: cddbd v1.5.2PL0 Copyright (c) Steve Scherf et al.
# Submitted via: ExactAudioCopyFreeDBPlugin 1.0
#
DISCID=0c098312
DTITLE=Del Shannon - The Runaway Hits Of Del Shannon Disc 1
DYEAR=2014
DGENRE=Country
TTITLE0=Runaway
TTITLE1=Little Town Flirt
TTITLE2=Hats Off To Larry
TTITLE3=Do You Want To Dance
TTITLE4=From Me To You
TTITLE5=Two Kinds Of TearDrops
TTITLE6=Handy Man
TTITLE7=Wide Wide World
TTITLE8=Misery
TTITLE9=I Won't Be There
TTITLE10=He Doesn't Care
TTITLE11=Don't Gild The Lily, Lily
TTITLE12=Lies
TTITLE13=I Wake up Crying
TTITLE14=Sue's Gotta Be Mine
TTITLE15=The Prom
TTITLE16=cry Myself To Sleep
TTITLE17=The Search
EXTD=
EXTT0=
EXTT1=
EXTT2=
EXTT3=
EXTT4=
EXTT5=
EXTT6=
EXTT7=
EXTT8=
EXTT9=
EXTT10=
EXTT11=
EXTT12=
EXTT13=
EXTT14=
EXTT15=
EXTT16=
EXTT17=
PLAYORDER=
